<svg width="24" height="23" viewBox="0 0 24 23" fill="none" xmlns="http://www.w3.org/2000/svg">
<path fill-rule="evenodd" clip-rule="evenodd" d="M7.63857 7.32029C8.79529 6.21177 10.3641 5.589 12 5.589C13.6359 5.589 15.2047 6.21177 16.3614 7.32029C17.5182 8.42882 18.168 9.93231 18.168 11.5C18.168 13.0677 17.5182 14.5712 16.3614 15.6797C15.2047 16.7882 13.6359 17.411 12 17.411C10.3641 17.411 8.79529 16.7882 7.63857 15.6797C6.48184 14.5712 5.832 13.0677 5.832 11.5C5.832 9.93231 6.48184 8.42882 7.63857 7.32029ZM10.4677 15.0451C10.9535 15.2379 11.4742 15.3372 12 15.3372C13.0619 15.3372 14.0804 14.9329 14.8313 14.2133C15.5821 13.4937 16.004 12.5177 16.004 11.5C16.004 10.4823 15.5821 9.50632 14.8313 8.78672C14.0804 8.06711 13.0619 7.66284 12 7.66284C11.4742 7.66284 10.9535 7.76209 10.4677 7.95492C9.98195 8.14776 9.54055 8.4304 9.16874 8.78672C8.79694 9.14303 8.50201 9.56604 8.30079 10.0316C8.09957 10.4971 7.996 10.9961 7.996 11.5C7.996 12.0039 8.09957 12.5029 8.30079 12.9684C8.50201 13.434 8.79694 13.857 9.16874 14.2133C9.54055 14.5696 9.98195 14.8522 10.4677 15.0451Z" fill="white"/>
<path d="M19.5354 6.46967C19.8088 6.20764 19.9624 5.85224 19.9624 5.48167C19.9624 5.1111 19.8088 4.7557 19.5354 4.49367C19.2619 4.23163 18.8911 4.08442 18.5044 4.08442C18.1177 4.08442 17.7469 4.23163 17.4734 4.49367C17.2 4.7557 17.0464 5.1111 17.0464 5.48167C17.0464 5.85224 17.2 6.20764 17.4734 6.46967C17.7469 6.73171 18.1177 6.87892 18.5044 6.87892C18.8911 6.87892 19.2619 6.73171 19.5354 6.46967Z" fill="white"/>
<path fill-rule="evenodd" clip-rule="evenodd" d="M7.0528 0.0689999C8.3328 0.0130334 8.7408 0 12 0C15.26 0 15.6672 0.0137999 16.9464 0.0689999C18.224 0.124967 19.0976 0.320467 19.8608 0.603367C20.6612 0.892291 21.3863 1.3449 21.9856 1.9297C22.596 2.50418 23.0683 3.19935 23.3696 3.96673C23.6664 4.69813 23.8696 5.53457 23.928 6.75893C23.9864 7.9856 24 8.3766 24 11.5C24 14.6234 23.9864 15.0144 23.928 16.2411C23.8696 17.4654 23.6664 18.3019 23.3704 19.0333C23.0689 19.8003 22.5966 20.4952 21.9864 21.0695C21.3864 21.6553 20.6608 22.1076 19.8608 22.3959C19.0976 22.6803 18.2248 22.875 16.9472 22.931C15.6672 22.987 15.2592 23 12 23C8.7408 23 8.3328 22.987 7.0528 22.931C5.7752 22.875 4.9024 22.6803 4.1392 22.3966C3.33881 22.1077 2.61372 21.6551 2.0144 21.0703C1.4032 20.4953 0.9312 19.7999 0.6304 19.0333C0.3336 18.3019 0.1304 17.4654 0.0719999 16.2411C0.0136 15.0144 0 14.6242 0 11.5C0 8.37583 0.0143998 7.9856 0.0719999 6.7597C0.1304 5.53533 0.3344 4.69813 0.6296 3.96673C0.931087 3.19968 1.40338 2.5048 2.0136 1.93047C2.6136 1.34473 3.3392 0.8924 4.1392 0.604133C4.9024 0.3197 5.7752 0.124967 7.0528 0.0689999ZM16.8496 2.139C15.584 2.0838 15.204 2.0723 12 2.0723C8.796 2.0723 8.416 2.0838 7.1504 2.139C5.9808 2.19037 5.3456 2.37743 4.9224 2.53537C4.40113 2.71935 3.92955 3.01303 3.5424 3.3948C3.1232 3.7973 2.8624 4.18063 2.6456 4.7173C2.48 5.12287 2.2856 5.7316 2.232 6.85247C2.1744 8.06533 2.1624 8.4295 2.1624 11.5C2.1624 14.5705 2.1744 14.9347 2.232 16.1475C2.2856 17.2684 2.4808 17.8771 2.6456 18.2827C2.8377 18.7822 3.14414 19.2341 3.5424 19.6052C3.9296 19.9869 4.40116 20.2806 4.9224 20.4646C5.3456 20.6233 5.9808 20.8096 7.1504 20.861C8.416 20.9162 8.7952 20.9277 12 20.9277C15.2048 20.9277 15.584 20.9162 16.8496 20.861C18.0192 20.8096 18.6544 20.6226 19.0776 20.4646C19.5989 20.2807 20.0705 19.987 20.4576 19.6052C20.8559 19.2341 21.1623 18.7822 21.3544 18.2827C21.52 17.8771 21.7144 17.2684 21.768 16.1475C21.8256 14.9347 21.8376 14.5705 21.8376 11.5C21.8376 8.4295 21.8256 8.06533 21.768 6.85247C21.7144 5.7316 21.5192 5.12287 21.3544 4.7173C21.1376 4.18063 20.8776 3.7973 20.4576 3.3948C20.0376 2.99307 19.6376 2.74313 19.0776 2.53537C18.6544 2.37667 18.0192 2.19037 16.8496 2.139Z" fill="white"/>
</svg>
