<svg width="31" height="31" viewBox="0 0 31 31" fill="none" xmlns="http://www.w3.org/2000/svg">
<path d="M5.1007 11.8018H9.48672V25.914H5.1007V11.8018ZM7.29492 4.77832C7.79798 4.77832 8.28973 4.92752 8.70797 5.20706C9.12621 5.48659 9.45215 5.88389 9.64455 6.3487C9.83695 6.8135 9.88717 7.32494 9.78885 7.81829C9.69053 8.31164 9.4481 8.76475 9.09221 9.1203C8.73633 9.47584 8.28299 9.71784 7.78955 9.81569C7.2961 9.91354 6.78472 9.86283 6.32009 9.66999C5.85547 9.47715 5.45848 9.15083 5.17934 8.73232C4.90021 8.31382 4.75148 7.82192 4.75195 7.31887C4.7526 6.64485 5.0208 5.99866 5.49763 5.52228C5.97446 5.04591 6.62091 4.77832 7.29492 4.77832ZM12.238 11.8018H16.4423V13.7393H16.5005C17.0866 12.63 18.5155 11.4603 20.6491 11.4603C25.0909 11.4506 25.9143 14.3738 25.9143 18.164V25.914H21.5283V19.048C21.5283 17.4132 21.4992 15.3086 19.2493 15.3086C16.9994 15.3086 16.6167 17.0911 16.6167 18.9414V25.914H12.238V11.8018Z" fill="white"/>
</svg>
