<svg width="24" height="23" viewBox="0 0 24 23" fill="none" xmlns="http://www.w3.org/2000/svg">
<path d="M12.0503 0C5.46348 0 0.102968 5.1129 0.100645 11.3965C0.0990968 13.4059 0.650323 15.3671 1.69548 17.0944L0 23L6.33523 21.4153C8.09746 22.3282 10.0569 22.8043 12.0457 22.803H12.0503C18.6372 22.803 23.9977 17.6893 24 11.4057C24.0015 8.36203 22.7597 5.497 20.503 3.34343C18.247 1.1891 15.247 0.000766667 12.0503 0ZM12.0503 20.8779H12.0465C10.2643 20.8779 8.51613 20.4209 6.99097 19.5577L6.6271 19.3522L2.86916 20.2921L3.87252 16.7961L3.63639 16.4381C2.64457 14.9401 2.11659 13.1877 2.11742 11.3965C2.11974 6.1732 6.576 1.9251 12.0542 1.9251C14.7066 1.92587 17.2003 2.91257 19.0761 4.70273C20.952 6.4929 21.984 8.8734 21.9825 11.4049C21.9801 16.6282 17.5246 20.8779 12.0495 20.8779H12.0503ZM17.4983 13.7824C17.1995 13.6405 15.7316 12.9513 15.4575 12.8555C15.1843 12.7612 14.9853 12.7121 14.7863 12.9973C14.5881 13.2825 14.0152 13.9242 13.8418 14.1136C13.6668 14.3037 13.4926 14.3267 13.1938 14.1849C12.895 14.0423 11.9326 13.7417 10.793 12.7711C9.90503 12.0167 9.30581 11.0845 9.13161 10.7985C8.95742 10.5141 9.11303 10.36 9.26245 10.2181C9.39639 10.0916 9.56129 9.88617 9.70994 9.7198C9.85858 9.55343 9.90813 9.4346 10.0088 9.24447C10.1079 9.0551 10.0583 8.88797 9.98323 8.74613C9.90813 8.60277 9.312 7.2013 9.06194 6.63167C8.82039 6.0766 8.57419 6.15097 8.39071 6.14177C8.21652 6.1341 8.01832 6.1318 7.81781 6.1318C7.62039 6.1318 7.296 6.2031 7.02193 6.4883C6.74864 6.7735 5.97677 7.46197 5.97677 8.86343C5.97677 10.2657 7.04671 11.6196 7.19613 11.8097C7.34555 11.9991 9.30194 14.8764 12.2973 16.1107C13.0095 16.4028 13.5654 16.5784 13.9997 16.7103C14.7151 16.9272 15.3662 16.8958 15.8803 16.823C16.4532 16.7409 17.647 16.1345 17.8947 15.4698C18.144 14.8051 18.144 14.2347 18.0697 14.1159C17.9969 13.997 17.7972 13.9257 17.4983 13.7824Z" fill="white"/>
</svg>
