<svg width="23" height="15" viewBox="0 0 23 15" fill="none" xmlns="http://www.w3.org/2000/svg">
<path fill-rule="evenodd" clip-rule="evenodd" d="M20.4608 0.453295C21.4499 0.700546 22.2324 1.42857 22.4981 2.3489C22.9852 4.02472 23 7.5 23 7.5C23 7.5 23 10.989 22.5128 12.6511C22.2471 13.5714 21.4647 14.2994 20.4756 14.5467C18.6893 15 11.5 15 11.5 15C11.5 15 4.31065 15 2.52439 14.5467C1.5353 14.2994 0.752889 13.5714 0.487163 12.6511C0 10.9753 0 7.5 0 7.5C0 7.5 0 4.02472 0.4724 2.36264C0.738126 1.44231 1.52054 0.714287 2.50963 0.467036C4.29589 0.0137329 11.4852 0 11.4852 0C11.4852 0 18.6746 0 20.4608 0.453295ZM15.1611 7.5L9.19705 10.7143V4.28572L15.1611 7.5Z" fill="white"/>
</svg>
