<svg width="170" height="34" viewBox="0 0 170 34" fill="none" xmlns="http://www.w3.org/2000/svg">
<path d="M6.81473 13.0332C8.19671 11.945 9.36353 11.2182 10.3193 10.8527C11.2751 10.4913 12.4751 10.3086 13.9232 10.3086C15.93 10.3086 17.7175 10.7364 19.2815 11.5962C20.8455 12.4559 21.9213 13.594 22.5172 15.0144C23.1419 13.6604 24.2633 12.5348 25.8728 11.646C27.4865 10.753 29.1829 10.3086 30.958 10.3086C33.6888 10.3086 35.6915 11.077 36.9576 12.6137C38.2237 14.1505 38.8568 16.5886 38.8568 19.9238V33.4058H31.3511V22.0545C31.3511 20.0069 31.0449 18.5615 30.4366 17.7183C29.8284 16.8752 28.7981 16.4557 27.3499 16.4557C25.5377 16.4557 24.0729 17.1825 22.9558 18.6362L22.7571 33.4058H15.3507V21.1615C15.3507 19.3755 15.0445 18.1378 14.4363 17.4442C13.8281 16.7506 12.7481 16.4017 11.2007 16.4017C9.42146 16.4017 8.15533 16.7506 7.39814 17.4442V33.4058H0V10.9025H6.31821L6.81059 13.0332H6.81473Z" fill="white"/>
<path d="M60.3844 33.4066H54.4096L53.9172 31.3755C52.2705 33.1283 50.1809 34.0047 47.6445 34.0047C42.6752 34.0047 40.1885 31.5417 40.1885 26.6199C40.1885 24.2067 41.2105 22.3418 43.2503 21.021C45.4557 19.6006 48.7493 18.8903 53.1269 18.8903H53.1766V18.8405C53.1766 17.6194 52.9697 16.8178 52.5601 16.4356C52.1463 16.0577 51.2857 15.8666 49.9699 15.8666C47.6652 15.8666 45.6254 16.5602 43.8462 17.9475C43.1552 16.7928 42.4476 15.5011 41.7235 14.0806C43.6641 12.6602 45.4019 11.6758 46.9329 11.1317C48.4638 10.5876 50.2306 10.3135 52.2415 10.3135C54.7779 10.3135 56.7681 11.2231 58.2163 13.0381C59.6645 14.8241 60.3885 17.2829 60.3885 20.4229V33.4107L60.3844 33.4066ZM52.9283 23.2473C51.3478 23.2473 50.0568 23.5463 49.0514 24.1403C48.0459 24.7342 47.5452 25.5109 47.5452 26.4703V26.5202C47.6445 28.0071 48.2528 28.7672 49.3741 28.8004H49.4734C50.3961 28.8004 51.1947 28.4764 51.8691 27.8327C52.5435 27.1889 52.8994 26.4205 52.9325 25.5275V23.2473H52.9283Z" fill="white"/>
<path d="M70.7541 1.4375V33.4065H63.3477V5.30435L70.7541 1.4375Z" fill="white"/>
<path d="M92.5309 33.4056H86.5561L86.0637 31.3746C84.4169 33.1273 82.3274 34.0037 79.791 34.0037C74.8217 34.0037 72.335 31.5407 72.335 26.6189C72.335 24.2057 73.357 22.3408 75.3968 21.02C77.6022 19.5996 80.8958 18.8893 85.2734 18.8893H85.3231V18.8395C85.3231 17.6184 85.1162 16.8168 84.7066 16.4347C84.2928 16.0567 83.4322 15.8656 82.1164 15.8656C79.8117 15.8656 77.7718 16.5593 75.9927 17.9465C75.3017 16.7919 74.5941 15.5001 73.87 14.0797C75.8106 12.6592 77.5484 11.6748 79.0793 11.1307C80.6103 10.5866 82.3771 10.3125 84.388 10.3125C86.9244 10.3125 88.9146 11.2221 90.3628 13.0372C91.8109 14.8231 92.535 17.282 92.535 20.422V33.4097L92.5309 33.4056ZM85.0748 23.2463C83.4942 23.2463 82.2033 23.5453 81.1978 24.1393C80.1924 24.7332 79.6917 25.5099 79.6917 26.4694V26.5192C79.791 28.0061 80.3993 28.7662 81.5206 28.7994H81.6199C82.5426 28.7994 83.3411 28.4755 84.0156 27.8317C84.69 27.1879 85.0459 26.4195 85.079 25.5265V23.2463H85.0748Z" fill="white"/>
<path d="M102.308 13.0332C103.69 11.945 104.857 11.2182 105.813 10.8527C106.769 10.4913 107.969 10.3086 109.417 10.3086C111.424 10.3086 113.211 10.7364 114.775 11.5962C116.339 12.4559 117.415 13.594 118.011 15.0144C118.636 13.6604 119.757 12.5348 121.366 11.646C122.98 10.753 124.672 10.3086 126.452 10.3086C129.182 10.3086 131.181 11.077 132.451 12.6137C133.717 14.1505 134.35 16.5886 134.35 19.9238V33.4058H126.845V22.0545C126.845 20.0069 126.539 18.5615 125.93 17.7183C125.322 16.8752 124.292 16.4557 122.844 16.4557C121.031 16.4557 119.567 17.1825 118.449 18.6362L118.251 33.4058H110.844V21.1615C110.844 19.3755 110.538 18.1378 109.93 17.4442C109.322 16.7506 108.242 16.4017 106.694 16.4017C104.915 16.4017 103.649 16.7506 102.892 17.4442V33.4058H95.4854V10.9025H101.804L102.296 13.0332H102.308Z" fill="white"/>
<path d="M136.919 4.56047V4.46079C136.919 3.23968 137.329 2.18886 138.152 1.31248C138.975 0.43611 139.981 0 141.164 0C142.414 0 143.477 0.427804 144.35 1.28756C145.223 2.14732 145.658 3.20645 145.658 4.46079V4.56047C145.658 7.33496 144.16 8.78866 141.164 8.92157C138.334 8.72221 136.919 7.26851 136.919 4.56047ZM145.116 10.9028V33.4061H137.61V10.9028H145.116Z" fill="white"/>
<path d="M148.472 5.5494L155.878 1.4375V13.6818C155.978 13.3205 156.354 12.847 157.012 12.2697C157.67 11.6923 158.344 11.2354 159.035 10.9073C160.057 10.4463 160.976 10.2137 161.799 10.2137C164.729 10.2137 166.827 10.9904 168.097 12.5438C169.363 14.0972 169.996 16.6764 169.996 20.2775V33.4106H162.59V20.5225C162.59 17.8477 161.435 16.5062 159.135 16.5062C157.587 16.5062 156.499 16.9007 155.874 17.694V33.4065H148.468V5.5494H148.472Z" fill="white"/>
<path d="M41.2529 10.1838L49.6482 3.25586L50.8813 6.85689L42.639 10.7694L41.2529 10.1838Z" fill="white"/>
<path d="M73.4473 9.96381L81.8384 3.04004L83.0715 6.63691L74.8334 10.5536L73.4473 9.96381Z" fill="white"/>
</svg>
