<svg width="60" height="60" viewBox="0 0 60 60" fill="none" xmlns="http://www.w3.org/2000/svg">
<rect width="60" height="60" rx="13" fill="#2D313C"/>
<path d="M18.6385 21.9736C19.8833 20.9837 20.9343 20.3225 21.7953 19.9901C22.6562 19.6614 23.7371 19.4951 25.0416 19.4951C26.8492 19.4951 28.4593 19.8843 29.8681 20.6663C31.2769 21.4484 32.246 22.4836 32.7827 23.7757C33.3454 22.5441 34.3555 21.5202 35.8053 20.7117C37.2589 19.8994 38.7869 19.4951 40.3859 19.4951C42.8457 19.4951 44.6496 20.1941 45.7901 21.592C46.9306 22.9899 47.5008 25.2076 47.5008 28.2415V40.5053H40.7399V30.1797C40.7399 28.317 40.4641 27.0022 39.9162 26.2353C39.3684 25.4683 38.4403 25.0867 37.1359 25.0867C35.5034 25.0867 34.184 25.7479 33.1777 27.0703L32.9988 40.5053H26.3274V29.3674C26.3274 27.7428 26.0516 26.6169 25.5037 25.9859C24.9558 25.355 23.9831 25.0376 22.5891 25.0376C20.9865 25.0376 19.846 25.355 19.164 25.9859V40.5053H12.5V20.0354H18.1912L18.6347 21.9736H18.6385Z" fill="white"/>
</svg>
