<svg width="522" height="505" viewBox="0 0 522 505" fill="none" xmlns="http://www.w3.org/2000/svg">
<g style="mix-blend-mode:color-dodge">
<path d="M-518.314 620.918C-363.688 584.196 -221.862 614.85 -72.0362 655.645C-2.46362 674.578 67.0674 686.029 137.908 666.39C175.395 655.998 210.285 638.874 243.783 619.359C296.274 588.789 341.555 540.054 394.399 512.331C533.191 439.531 615.502 618.029 735.446 646.459C791.823 659.822 824.843 629.189 875.048 613.374C935.81 594.234 989.818 626.031 1040.19 657.516" stroke="#4D4D4D" stroke-miterlimit="10"/>
<path d="M-518.314 592.072C-370.649 551.381 -245.24 591.574 -105.305 637.585C-35.8992 660.404 33.3202 677.487 105.656 658.783C215.709 630.332 287.443 543.754 379.936 485.418C530.136 390.713 597.07 601.611 728.11 628.462C784.841 640.1 816.925 603.918 867.068 586.44C930.573 564.307 989.194 604.168 1040.21 638.23" stroke="#4D4D4D" stroke-miterlimit="10"/>
<path d="M-518.314 563.372C-375.034 517.09 -265.023 569.108 -133.442 620.669C-62.3941 648.496 9.46431 671.066 85.167 648.06C197.402 613.956 270.548 521.06 363.333 456.448C521.076 346.614 572.861 581.307 708.348 608.906C766.014 620.648 801.61 580.497 850.984 560.899C920.723 533.217 984.747 580.33 1040.21 619.048" stroke="#4D4D4D" stroke-miterlimit="10"/>
<path d="M-518.314 535.191C-454.124 510.731 -391.471 505.099 -325.078 524.842C-263.776 543.068 -211.14 579.873 -153.287 605.913C-84.9615 636.671 -14.7655 663.646 60.0021 639.144C178.762 600.219 250.246 494.521 347.165 424.401C504.098 310.847 549.753 552.898 678.591 585.547C743.82 602.069 781.62 554.166 837.082 532.261C912.037 502.646 982.067 557.927 1040.21 599.803" stroke="#4D4D4D" stroke-miterlimit="10"/>
<path d="M-518.314 507.988C-460.545 481.823 -402.984 473.676 -341.973 494.126C-281.876 514.264 -233.063 556.659 -177.704 586.004C-113.306 620.149 -47.0374 654.419 27.0653 632.556C151.311 595.938 229.299 477.23 325.72 400.419C490.134 269.428 517.419 532.843 652.117 563.164C721.232 578.73 764.268 523.179 823.617 501.524C903.455 472.408 980.03 536.023 1040.19 580.538" stroke="#4D4D4D" stroke-miterlimit="10"/>
<path d="M-518.314 482.155C-384.801 410.457 -304.61 495.269 -195.866 563.809C-134.107 602.734 -67.6099 647.769 8.07201 622.705C130.634 582.118 211.262 460.085 304.171 378.93C364.143 326.559 421.559 314.401 472.928 380.655C517.481 438.097 546.095 520.831 625.372 537.477C694.405 551.963 743.155 495.103 802.379 471.93C889.532 437.806 975.812 512.414 1040.21 561.315" stroke="#4D4D4D" stroke-miterlimit="10"/>
<path d="M-518.314 458.131C-388.998 376.852 -308.412 461.248 -206.423 537.852C-152.02 578.709 -90.4267 635.299 -16.9267 616.117C27.8133 604.438 67.483 571.249 101.646 541.946C167.312 485.647 221.818 419.227 284.159 359.748C343.924 302.721 402.836 280.277 454.08 355.508C492.274 411.579 521.575 498.199 598.358 510.44C671.359 522.078 724.785 459.44 788.81 437.785C881.157 406.529 974.253 490.53 1040.21 542.029" stroke="#4D4D4D" stroke-miterlimit="10"/>
<path d="M-518.314 436.351C-467.901 400.086 -412.272 377.33 -350.846 399.421C-296.152 419.102 -253.635 464.823 -211.597 502.917C-164.218 545.853 -104.37 622.082 -31.6392 607.098C9.29805 598.66 45.3104 567.321 75.899 540.636C143.414 481.719 202.597 413.47 263.296 347.819C320.109 286.345 383.074 242.12 436.064 327.681C471.744 385.268 499.444 476.357 580.362 479.557C652.179 482.405 706.145 425.046 770.876 403.889C870.165 371.448 970.887 466.797 1040.23 522.805" stroke="#4D4D4D" stroke-miterlimit="10"/>
<path d="M-518.314 416.359C-466.571 376.041 -408.927 349.274 -343.573 372.508C-288.422 392.106 -242.747 436.788 -201.976 476.96C-159.584 518.753 -102.687 600.843 -33.2808 586.835C5.55761 579 39.7205 547.598 68.3558 522.119C133.835 463.825 192.31 397.364 251.472 332.877C305.646 273.834 369.276 220.008 423.014 305.174C458.174 360.891 484.877 449.818 564.278 450.92C635.472 451.896 694.841 400.211 761.317 382.505C864.783 354.926 965.9 445.329 1040.21 503.083" stroke="#4D4D4D" stroke-miterlimit="10"/>
<path d="M-518.314 394.08C-461.231 349.17 -400.324 325.021 -330.543 356.194C-272.836 381.985 -222.299 430.782 -177.642 473.988C-137.577 512.767 -87.9331 578.211 -24.7609 557.823C13.7866 545.375 47.3053 512.123 76.0652 485.397C133.71 431.841 187.282 373.838 241.664 317.02C293.49 262.84 356.371 210.137 412.083 285.68C451.711 339.423 476.939 425.378 556.049 429.306C626.515 432.797 694.654 386.308 762.585 373.838C865.323 354.968 960.871 425.794 1040.23 480.368" stroke="#4D4D4D" stroke-miterlimit="10"/>
<path d="M-518.314 369.329C-456.929 322.485 -394.381 301.89 -322.668 338.883C-267.724 367.209 -217.02 412.826 -171.823 454.453C-129.702 493.253 -77.9793 560.109 -14.3292 530.515C18.8986 515.074 46.2455 485.667 72.3456 460.791C127.247 408.42 179.177 352.89 232.791 299.23C288.253 243.721 351.093 200.681 408.634 274.478C448.241 325.291 476.772 405.282 551.872 408.607C620.967 411.683 689.604 378.577 757.037 367.562C861.125 350.562 953.535 403.64 1040.23 454.785" stroke="#4D4D4D" stroke-miterlimit="10"/>
<path d="M-518.314 342.561C-447.516 291.478 -379.98 279.923 -304.589 327.452C-250.414 361.598 -200.334 407.859 -151.853 449.569C-111.373 484.4 -65.8436 539.078 -9.19643 507.406C21.1428 490.447 46.391 460.209 70.5585 435.749C122.011 383.648 172.112 330.279 225.06 279.674C279.92 227.24 342.718 189.396 401.111 255.65C444.708 305.111 474.902 384.001 549.815 391.15C615.834 397.447 687.776 371.635 752.714 361.577C856.491 345.512 947.8 382.193 1040.19 426.978" stroke="#4D4D4D" stroke-miterlimit="10"/>
<path d="M-518.314 314.276C-441.614 262.674 -371.086 257.146 -294.219 311.138C-236.222 351.871 -184.104 403.349 -128.953 447.989C-91.0294 478.664 -49.0739 520.727 -1.67397 485.48C29.6628 462.183 55.2434 427.082 81.2603 398.486C125.252 350.167 170.346 302.493 218.743 258.559C278.05 204.712 342.365 179.275 402.088 244.178C445.81 291.686 479.307 365.837 551.145 373.88C619.138 381.486 692.659 363.634 760.008 354.386C859.047 340.794 947.197 362.928 1040.21 397.364" stroke="#4D4D4D" stroke-miterlimit="10"/>
<path d="M-518.314 284.911C-430.871 230.233 -356.54 236.052 -276.265 300.145C-215.358 348.775 -163.449 405.365 -99.9649 451.252C-56.4094 482.716 -25.0102 500.485 14.7425 456.635C82.2994 382.11 137.014 297.173 216.166 232.914C274.268 185.759 338.188 168.177 396.082 223.063C444.999 269.428 477.915 340.608 548.527 357.316C613.715 372.716 695.527 357.524 761.068 348.588C857.8 335.391 945.099 343.143 1040.23 366.585" stroke="#4D4D4D" stroke-miterlimit="10"/>
<path d="M-518.314 254.964C-420.398 197.834 -340.663 216.392 -258.103 289.525C-198.962 341.917 -149.775 402.58 -82.6549 445.62C-33.3847 477.23 -7.45083 482.82 26.2549 432.486C79.6603 352.744 133.419 271.236 211.221 212.423C274.123 164.852 337.856 154.17 399.324 209.014C450.506 254.694 486.934 328.18 559.312 344.348C623.502 358.688 698.415 351.871 763.125 343.06C857.073 330.258 945.327 324.48 1040.23 335.059" stroke="#4D4D4D" stroke-miterlimit="10"/>
<path d="M-518.314 224.913C-411.587 165.995 -328.091 195.028 -243.495 275.642C-183.627 332.689 -134.273 402.372 -60.5654 442.814C-5.8508 472.845 13.3502 457.237 39.4503 405.76C80.9694 323.899 133.481 241.165 210.389 187.837C275.494 142.678 341.347 141.285 402.503 193.178C455.847 238.463 494.706 310.037 566.169 330.112C719.445 373.173 886.249 308.811 1040.23 303.47" stroke="#4D4D4D" stroke-miterlimit="10"/>
<path d="M-518.314 195.215C-465.221 166.93 -415.306 150.138 -355.895 170.734C-306.75 187.775 -266.498 223.541 -230.445 259.972C-170.971 320.116 -120.122 401.042 -40.8864 436.788C18.5453 463.597 32.6136 427.477 52.6666 377.08C85.3541 294.866 134.707 210.635 211.823 162.504C379.894 57.5744 440.552 269.886 574.274 315.918C730.438 369.682 887.516 301.849 1040.23 272.276" stroke="#4D4D4D" stroke-miterlimit="10"/>
<path d="M-518.314 166.348C-462.935 137.046 -411.898 120.711 -351.407 142.968C-300.661 161.631 -259.641 199.766 -222.881 238.4C-165.07 299.147 -105.285 404.305 -19.0463 428.496C41.3205 445.433 50.8379 388.947 66.1323 343.475C92.8973 263.88 139.03 176.116 216.208 134.011C376.424 46.6013 457.114 243.139 578.076 298.69C736.776 371.573 890.446 296.84 1040.21 242.017" stroke="#4D4D4D" stroke-miterlimit="10"/>
<path d="M-518.314 138.812C-462.395 108.387 -412.023 91.865 -350.472 113.416C-299.435 131.289 -257.729 171.17 -221.447 210.033C-162.576 273.107 -99.4662 392.916 -7.92883 410.789C54.2875 422.947 63.0152 360.787 76.6056 314.11C99.9419 234.036 141.96 145.4 222.608 108.158C383.053 34.0696 469.582 222.751 587.926 283.768C649.54 315.523 729.316 331.796 797.953 320.74C884.96 306.732 964.528 255.172 1040.23 213.337" stroke="#4D4D4D" stroke-miterlimit="10"/>
<path d="M-518.314 113.042C-458.758 78.606 -401.197 58.7589 -335.261 88.5191C-285.783 110.86 -246.529 151.926 -211.057 191.786C-157.9 251.514 -90.9047 377.35 -1.48695 386.786C65.8205 393.893 74.3197 320.386 88.7413 270.758C111.039 194.051 151.186 111.816 232.001 82.2221C391.24 23.8864 483.318 198.81 598.213 267.163C656.273 301.703 732.163 325.353 800.073 316.895C891.049 305.548 969.786 239.71 1040.19 186.611" stroke="#4D4D4D" stroke-miterlimit="10"/>
<path d="M-518.314 89.5374C-462.083 53.7088 -406.724 28.7702 -340.289 55.6C-287.05 77.1096 -244.658 122.768 -208.085 165.434C-155.802 226.43 -90.0527 351.664 2.83536 353.867C69.0623 355.425 81.3227 280.859 96.9495 231.064C121.117 154.129 159.332 79.4996 244.095 57.7406C406.41 16.0515 496.534 175.991 612.676 252.719C669.531 290.294 745.358 321.28 814.619 311.284C905.2 298.191 977.973 222.897 1040.21 162.504" stroke="#4D4D4D" stroke-miterlimit="10"/>
<path d="M-518.314 68.776C-466.696 31.3472 -413.083 -0.0132097 -347.438 21.9744C-296.277 39.0989 -255.984 81.0375 -221.551 120.815C-165.153 185.946 -108.422 301.807 -11.3368 309.205C62.4749 314.817 81.6552 243.076 102.893 186.32C131.86 108.886 172.237 43.3177 260.948 31.3264C418.213 10.0662 508.836 145.296 618.099 230.42C672.876 273.086 747.041 313.944 818.713 306.961C913.783 297.692 983.75 209.285 1040.21 141.514" stroke="#4D4D4D" stroke-miterlimit="10"/>
<path d="M-518.314 52.3995C-466.945 16.5502 -413.976 -12.9605 -349.641 7.98794C-299.539 24.302 -259.662 64.3909 -225.644 102.963C-170.847 165.06 -112.849 284.267 -18.5476 287.53C54.3706 290.044 79.3278 225.453 105.469 168.676C138.988 95.9175 184.352 29.3105 270.382 17.6932C422.141 -2.79804 516.941 123.537 624.645 204.338C677.489 243.97 752.028 284.288 819.897 282.958C914.78 281.087 985.059 190.83 1040.21 124.95" stroke="#4D4D4D" stroke-miterlimit="10"/>
<path d="M-518.314 41.1979C-467.756 6.59555 -415.556 -22.1047 -352.487 -3.02662C-303.758 11.708 -264.462 49.2407 -230.985 85.9836C-177.06 145.192 -119.311 263.152 -28.065 263.713C43.4817 264.15 73.9457 207.206 105.179 151.739C143.331 83.9886 193.412 18.9818 276.388 7.5931C422.66 -12.4617 521.471 100.843 629.238 176.262C681.562 212.88 755.291 253.738 820.043 259.515C914.448 267.932 985.87 176.781 1040.19 113.271" stroke="#4D4D4D" stroke-miterlimit="10"/>
<path d="M-518.314 34.2567C-469.813 1.10905 -417.966 -27.5496 -357.392 -12.1708C-305.752 0.922005 -264.732 39.9718 -229.572 77.7747C-176.125 135.238 -122.532 241.975 -33.2393 238.006C34.3176 235.013 68.7506 183.722 104.036 133.242C147.363 71.2283 199.667 13.0796 279.006 1.81565C423.076 -18.6548 524.006 79.2918 636.095 149.162C687.88 181.457 753.587 219.759 813.247 235.2C909.959 260.222 983.604 169.591 1040.21 105.581" stroke="#4D4D4D" stroke-miterlimit="10"/>
<path d="M-518.314 30.6821C-471.143 -1.96673 -420.398 -31.2489 -360.82 -19.1329C-311.218 -9.03269 -270.904 25.7152 -236.346 60.6085C-182.151 115.307 -131.696 213.545 -45.188 209.7C20.4363 206.791 59.8982 163.605 100.046 117.074C148.152 61.3359 203.677 8.38281 279.962 -2.71489C417.943 -22.7905 523.674 55.5169 637.072 117.822C693.345 148.746 752.527 186.549 811.606 211.571C906.717 251.867 981.485 164.665 1040.19 101.051" stroke="#4D4D4D" stroke-miterlimit="10"/>
<path d="M-518.314 29.5806C-419.068 -40.788 -333.224 -40.4347 -243.1 43.0059C-187.762 94.2341 -140.736 182.164 -57.2613 179.171C6.22256 176.885 50.36 141.888 95.1 100.801C147.82 52.3995 205.901 5.57717 279.151 -5.31272C410.629 -24.8688 521.949 31.7628 636.365 85.4848C699.35 115.058 750.304 152.154 808.967 188.128C901.605 244.926 977.225 163.834 1040.23 98.8893" stroke="#4D4D4D" stroke-miterlimit="10"/>
<path d="M-518.314 30.0587C-425.946 -37.6083 -340.934 -50.7426 -249.459 24.5721C-192.666 71.3321 -148.923 147.935 -68.836 146.356C64.5114 143.737 146.635 13.1211 276.969 -6.5804C401.818 -25.4507 519.102 8.00872 633.934 52.3372C704.13 79.4372 748.33 117.822 805.268 164.644C894.582 238.089 970.492 166.245 1040.21 98.1412" stroke="#4D4D4D" stroke-miterlimit="10"/>
<path d="M-518.314 31.2225C-433.842 -33.1609 -349.495 -60.4271 -257.23 3.35351C-200.188 42.7774 -158.358 108.657 -84.6498 111.192C47.8871 115.785 146.511 11.9574 273.707 -7.88967C389.765 -25.991 513.803 -15.9532 625.767 17.6309C705.481 41.5512 746.189 85.0484 802.379 143.114C823.367 164.811 846.974 187.401 878.498 190.809C941.213 197.563 999.875 135.404 1040.21 98.0789" stroke="#4D4D4D" stroke-miterlimit="10"/>
<path d="M-518.314 32.1785C-439.723 -30.1266 -355.771 -69.7168 -261.449 -17.5534C-203.098 14.7214 -162.514 69.5033 -92.9204 73.5559C36.5618 81.0998 145.638 11.708 270.195 -7.64027C381.931 -24.9934 508.545 -39.4579 620.136 -15.5167C705.979 2.89631 744.589 54.2492 796.623 119.879C816.551 145.026 839.119 173.955 872.056 181.852C935.685 197.106 998.462 134.406 1040.19 97.8503" stroke="#4D4D4D" stroke-miterlimit="10"/>
<path d="M-518.314 32.0122C-441.614 -31.1658 -356.373 -80.0664 -257.625 -37.92C-203.783 -14.9349 -163.719 27.1907 -103.809 33.0513C24.9456 45.6661 142.022 11.4378 267.743 -7.01682C333.991 -16.7429 399.262 -26.3859 464.948 -39.6241C516.006 -49.9113 565.629 -55.2524 617.538 -47.8123C707.226 -34.9689 745.109 29.1235 791.615 98.9518C810.234 126.904 832.615 161.61 866.445 172.729C931.28 194.051 995.948 133.367 1040.21 96.5202" stroke="#4D4D4D" stroke-miterlimit="10"/>
<path d="M-518.314 29.8509C-444.44 -32.953 -359.158 -91.1433 -258.186 -64.2303C-204.656 -49.9529 -161.454 -16.7429 -105.825 -9.71851C21.0805 6.28381 138.656 9.92071 265.457 -7.74419C332.598 -17.0962 395.542 -30.8748 459.587 -53.0702C508.899 -70.1532 556.215 -84.1604 609.081 -80.4196C703.215 -73.7693 741.451 1.94032 783.947 75.4678C802.047 106.787 823.908 147.083 858.985 162.317C925.066 191.017 993.163 130.707 1040.25 93.3613" stroke="#4D4D4D" stroke-miterlimit="10"/>
<path d="M-518.314 24.8008C-445.479 -38.585 -360.529 -103.322 -258.353 -93.5124C-203.492 -88.2545 -153.287 -62.3183 -98.822 -54.2964C25.6729 -35.9457 135.185 5.93051 263.067 -9.67694C330.728 -17.9483 391.531 -35.6132 452.501 -65.8305C498.425 -88.587 542.189 -111.614 594.805 -112.279C697.085 -113.526 735.716 -24.1829 776.903 54.6233C794.69 88.6645 816.073 132.951 852.314 151.198C919.559 185.073 990.462 125.407 1040.21 87.4384" stroke="#4D4D4D" stroke-miterlimit="10"/>
<path d="M-518.314 15.9683C-443.983 -49.4749 -358.805 -118.43 -255.63 -125.247C-200.001 -128.925 -141.442 -112.383 -87.3097 -101.16C34.4423 -75.9307 135.809 0.818051 265.104 -13.1476C331.58 -20.3175 390.285 -41.9518 446.017 -78.4454C490.986 -107.894 532.193 -139.462 588.03 -142.725C692.534 -148.814 730.812 -45.0483 768.944 33.6955C787.064 71.0827 807.865 116.305 845.228 138.438C912.328 178.174 989.693 115.39 1040.21 77.9824" stroke="#4D4D4D" stroke-miterlimit="10"/>
<path d="M-518.314 2.4183C-391.118 -109.307 -257.064 -195.449 -83.9017 -153.594C39.3672 -123.792 134.313 -7.88967 268.055 -18.8211C335.819 -24.37 392.903 -51.5739 444.459 -94.6555C484.835 -128.385 520.806 -165.377 575.894 -171.342C680.96 -182.71 719.466 -76.4294 755.478 2.2105C775.136 45.1258 796.415 98.8063 839.077 124.368C907.86 165.58 987.74 102.256 1040.19 64.1" stroke="#4D4D4D" stroke-miterlimit="10"/>
<path d="M-518.314 -15.9947C-395.918 -120.571 -238.466 -236.245 -67.2359 -188.279C52.9575 -154.612 143.768 -26.4067 275.868 -33.1817C341.929 -36.5692 398.056 -68.2205 444.688 -113.069C481.676 -148.627 514.738 -188.737 569.141 -194.763C669.925 -205.965 710.946 -101.056 746.459 -26.469C767.718 18.1504 789.994 72.7661 833.716 100.219C903.725 144.174 984.581 84.1548 1040.19 45.4167" stroke="#4D4D4D" stroke-miterlimit="10"/>
<path d="M-518.314 -35.2391C-395.482 -135.368 -234.227 -245.929 -65.6981 -204.406C58.1734 -173.898 156.298 -46.6693 290.414 -55.3771C351.197 -59.3257 402.129 -88.8572 444.812 -130.505C478.871 -163.736 508.732 -201.601 558.46 -209.727C657.644 -225.937 706.644 -118.389 745.129 -47.0642C767.24 -6.1232 791.22 41.3226 831.347 67.7368C901.522 113.936 980.487 62.7907 1040.21 24.3435" stroke="#4D4D4D" stroke-miterlimit="10"/>
<path d="M-518.314 -54.4834C-393.155 -151.079 -224.044 -257.9 -56.7626 -215.338C64.8647 -184.393 168.974 -68.262 300.223 -75.3903C356.184 -78.4245 405.184 -108.247 444.313 -146.195C475.671 -176.6 503.579 -212.823 548.631 -222.362C646.257 -243.02 702.405 -134.64 744.922 -66.9735C770.481 -26.3027 797.205 18.4622 841.093 41.4681C910.541 77.8578 979.615 37.6857 1040.21 1.71171" stroke="#4D4D4D" stroke-miterlimit="10"/>
<path d="M-518.314 -73.7278C-389.144 -167.31 -215.919 -265.589 -48.8037 -224.191C71.6598 -194.348 180.196 -86.8206 309.428 -95.653C361.483 -99.2068 405.974 -125.372 443.171 -160.348C474.445 -189.755 502.54 -225.604 547.218 -233.855C640.043 -251.021 700.514 -149.25 745.815 -86.1971C771.811 -50.0152 799.366 -13.106 838.994 8.81923C907.943 46.9338 977.433 12.0405 1040.21 -22.2086" stroke="#4D4D4D" stroke-miterlimit="10"/>
<path d="M-518.314 -92.9721C-388.25 -180.569 -220.428 -265.132 -57.3444 -234.395C68.8753 -210.599 182.938 -105.109 315.496 -114.399C365.764 -117.932 408.571 -143.577 445.186 -176.537C475.131 -203.513 502.332 -234.603 543.83 -242.438C629.736 -258.669 693.698 -171.009 740.911 -113.734C771.811 -76.2216 805.579 -35.052 851.816 -15.87C917.19 11.2508 981.547 -17.7197 1040.23 -47.1057" stroke="#4D4D4D" stroke-miterlimit="10"/>
</g>
</svg>
