<svg width="31" height="31" viewBox="0 0 31 31" fill="none" xmlns="http://www.w3.org/2000/svg">
<path d="M0 31V6.88889H6.88889V0H24.1111V13.7778H31V31H17.2222V24.1111H13.7778V31H0ZM3.44444 27.5556H6.88889V24.1111H3.44444V27.5556ZM3.44444 20.6667H6.88889V17.2222H3.44444V20.6667ZM3.44444 13.7778H6.88889V10.3333H3.44444V13.7778ZM10.3333 20.6667H13.7778V17.2222H10.3333V20.6667ZM10.3333 13.7778H13.7778V10.3333H10.3333V13.7778ZM10.3333 6.88889H13.7778V3.44444H10.3333V6.88889ZM17.2222 20.6667H20.6667V17.2222H17.2222V20.6667ZM17.2222 13.7778H20.6667V10.3333H17.2222V13.7778ZM17.2222 6.88889H20.6667V3.44444H17.2222V6.88889ZM24.1111 27.5556H27.5556V24.1111H24.1111V27.5556ZM24.1111 20.6667H27.5556V17.2222H24.1111V20.6667Z" fill="#216AEE"/>
</svg>
