<svg width="10" height="10" viewBox="0 0 10 10" fill="none" xmlns="http://www.w3.org/2000/svg">
<path d="M0 9.67164V2.14925H2.14925V0H7.52239V4.29851H9.67164V9.67164H5.37313V7.52239H4.29851V9.67164H0ZM1.07463 8.59701H2.14925V7.52239H1.07463V8.59701ZM1.07463 6.44776H2.14925V5.37313H1.07463V6.44776ZM1.07463 4.29851H2.14925V3.22388H1.07463V4.29851ZM3.22388 6.44776H4.29851V5.37313H3.22388V6.44776ZM3.22388 4.29851H4.29851V3.22388H3.22388V4.29851ZM3.22388 2.14925H4.29851V1.07463H3.22388V2.14925ZM5.37313 6.44776H6.44776V5.37313H5.37313V6.44776ZM5.37313 4.29851H6.44776V3.22388H5.37313V4.29851ZM5.37313 2.14925H6.44776V1.07463H5.37313V2.14925ZM7.52239 8.59701H8.59701V7.52239H7.52239V8.59701ZM7.52239 6.44776H8.59701V5.37313H7.52239V6.44776Z" fill="white"/>
</svg>
