<svg width="20" height="20" viewBox="0 0 20 20" fill="none" xmlns="http://www.w3.org/2000/svg">
<path d="M13.5 6.75V11.25C13.5 11.4489 13.421 11.6397 13.2803 11.7803C13.1397 11.921 12.9489 12 12.75 12C12.5511 12 12.3603 11.921 12.2197 11.7803C12.079 11.6397 12 11.4489 12 11.25V8.56031L7.28063 13.2806C7.21095 13.3503 7.12822 13.4056 7.03718 13.4433C6.94613 13.481 6.84855 13.5004 6.75 13.5004C6.65146 13.5004 6.55388 13.481 6.46283 13.4433C6.37179 13.4056 6.28906 13.3503 6.21938 13.2806C6.1497 13.2109 6.09442 13.1282 6.05671 13.0372C6.019 12.9461 5.99959 12.8485 5.99959 12.75C5.99959 12.6515 6.019 12.5539 6.05671 12.4628C6.09442 12.3718 6.1497 12.2891 6.21938 12.2194L10.9397 7.5H8.25C8.05109 7.5 7.86033 7.42098 7.71967 7.28033C7.57902 7.13968 7.5 6.94891 7.5 6.75C7.5 6.55109 7.57902 6.36032 7.71967 6.21967C7.86033 6.07902 8.05109 6 8.25 6H12.75C12.9489 6 13.1397 6.07902 13.2803 6.21967C13.421 6.36032 13.5 6.55109 13.5 6.75ZM19.5 9.75C19.5 11.6784 18.9282 13.5634 17.8568 15.1668C16.7855 16.7702 15.2627 18.0199 13.4812 18.7578C11.6996 19.4958 9.73919 19.6889 7.84787 19.3127C5.95656 18.9365 4.21928 18.0079 2.85571 16.6443C1.49215 15.2807 0.563554 13.5434 0.187348 11.6521C-0.188858 9.76082 0.00422452 7.80042 0.742179 6.01884C1.48013 4.23726 2.72982 2.71451 4.33319 1.64317C5.93657 0.571828 7.82164 0 9.75 0C12.335 0.00272983 14.8134 1.03084 16.6413 2.85872C18.4692 4.68661 19.4973 7.16498 19.5 9.75ZM18 9.75C18 8.1183 17.5161 6.52325 16.6096 5.16655C15.7031 3.80984 14.4146 2.75242 12.9071 2.12799C11.3997 1.50357 9.74085 1.34019 8.14051 1.65852C6.54017 1.97685 5.07016 2.76259 3.91637 3.91637C2.76259 5.07015 1.97685 6.54016 1.65853 8.1405C1.3402 9.74085 1.50358 11.3996 2.128 12.9071C2.75242 14.4146 3.80984 15.7031 5.16655 16.6096C6.52326 17.5161 8.11831 18 9.75 18C11.9373 17.9975 14.0343 17.1275 15.5809 15.5809C17.1275 14.0343 17.9975 11.9373 18 9.75Z" fill="black"/>
</svg>
