<svg width="11" height="11" viewBox="0 0 11 11" fill="none" xmlns="http://www.w3.org/2000/svg">
<path d="M3.21045 8.0597L5.37313 7.0791L7.53582 8.0597L7.73731 7.85821L5.37313 2.14925L3.00896 7.85821L3.21045 8.0597ZM5.37313 10.7463C4.62985 10.7463 3.93134 10.6052 3.27761 10.3231C2.62388 10.041 2.05522 9.65821 1.57164 9.17463C1.08806 8.69104 0.705224 8.12239 0.423134 7.46866C0.141045 6.81493 0 6.11642 0 5.37313C0 4.62985 0.141045 3.93134 0.423134 3.27761C0.705224 2.62388 1.08806 2.05522 1.57164 1.57164C2.05522 1.08806 2.62388 0.705224 3.27761 0.423134C3.93134 0.141045 4.62985 0 5.37313 0C6.11642 0 6.81493 0.141045 7.46866 0.423134C8.12239 0.705224 8.69104 1.08806 9.17463 1.57164C9.65821 2.05522 10.041 2.62388 10.3231 3.27761C10.6052 3.93134 10.7463 4.62985 10.7463 5.37313C10.7463 6.11642 10.6052 6.81493 10.3231 7.46866C10.041 8.12239 9.65821 8.69104 9.17463 9.17463C8.69104 9.65821 8.12239 10.041 7.46866 10.3231C6.81493 10.6052 6.11642 10.7463 5.37313 10.7463ZM5.37313 9.67164C6.57313 9.67164 7.58955 9.25522 8.42239 8.42239C9.25522 7.58955 9.67164 6.57313 9.67164 5.37313C9.67164 4.17313 9.25522 3.15672 8.42239 2.32388C7.58955 1.49104 6.57313 1.07463 5.37313 1.07463C4.17313 1.07463 3.15672 1.49104 2.32388 2.32388C1.49104 3.15672 1.07463 4.17313 1.07463 5.37313C1.07463 6.57313 1.49104 7.58955 2.32388 8.42239C3.15672 9.25522 4.17313 9.67164 5.37313 9.67164Z" fill="white"/>
</svg>
