<svg width="21" height="21" viewBox="0 0 21 21" fill="none" xmlns="http://www.w3.org/2000/svg">
<mask id="mask0_82_776" style="mask-type:alpha" maskUnits="userSpaceOnUse" x="0" y="0" width="21" height="21">
<rect x="0.000976562" width="20.4117" height="20.4117" fill="#D9D9D9"/>
</mask>
<g mask="url(#mask0_82_776)">
<path d="M10.2072 19.5611L4.08371 14.9685C3.87109 14.8126 3.70453 14.6141 3.58405 14.3732C3.46356 14.1322 3.40332 13.8771 3.40332 13.6077V3.4019C3.40332 2.93413 3.56987 2.5337 3.90298 2.20059C4.23609 1.86748 4.63653 1.70093 5.10429 1.70093H15.3101C15.7779 1.70093 16.1783 1.86748 16.5114 2.20059C16.8445 2.5337 17.0111 2.93413 17.0111 3.4019V13.6077C17.0111 13.8771 16.9509 14.1322 16.8304 14.3732C16.7099 14.6141 16.5433 14.8126 16.3307 14.9685L10.2072 19.5611ZM10.2072 17.4349L15.3101 13.6077V3.4019H5.10429V13.6077L10.2072 17.4349ZM9.3142 12.7572L14.1194 7.952L12.9288 6.7188L9.3142 10.3334L7.52818 8.54734L6.29497 9.73802L9.3142 12.7572Z" fill="white"/>
</g>
</svg>
