<svg width="48" height="38" viewBox="0 0 48 38" fill="none" xmlns="http://www.w3.org/2000/svg">
<path d="M34.0392 14.7299L37.1084 16.3154L38.6893 13.2552L35.6201 11.6697L34.0392 14.7299ZM30.8773 20.8503L33.9465 22.4359L35.5274 19.3756L32.4583 17.7901L30.8773 20.8503ZM27.7155 26.9707L30.7847 28.5563L32.3656 25.4961L29.2964 23.9105L27.7155 26.9707ZM24.5536 33.0911L26.1345 30.0309L32.2729 33.202L43.3394 11.7806L29.5281 4.64555L28.4214 6.7877L26.4984 2.98348L28.0398 -0.000218677L47.9895 10.3059L33.7612 37.8478L24.5536 33.0911ZM0.000170916 20.4066L7.90481 5.10557L22.5993 3.00453L29.3891 16.2045L21.4844 31.5056L12.2769 26.7489L16.2292 19.0983L13.16 17.5128L9.20771 25.1633L0.000170916 20.4066ZM4.65028 18.932L7.71946 20.5175L11.6718 12.867L20.8793 17.6237L16.927 25.2742L19.9962 26.8598L25.5294 16.1491L20.6626 6.75328L10.1835 8.22124L4.65028 18.932Z" fill="#216AEE"/>
</svg>
