<svg width="23" height="23" viewBox="0 0 23 23" fill="none" xmlns="http://www.w3.org/2000/svg">
<path d="M2.3 0C1.035 0 0 1.035 0 2.3V11.5C0 12.765 1.035 13.8 2.3 13.8H9.2V20.7C9.2 21.965 10.235 23 11.5 23H20.7C21.965 23 23 21.965 23 20.7V11.5C23 10.235 21.965 9.2 20.7 9.2H13.8V2.3C13.8 1.035 12.765 0 11.5 0H2.3ZM5.95215 2.3H7.82539L10.6487 9.36846C9.91547 9.66329 9.37202 10.3237 9.23818 11.1227L8.51719 9.2H5.26484L4.40234 11.518L2.3 11.5L5.95215 2.3ZM6.9 4.6L5.75 8.05H8.05L6.9 4.6ZM15.7204 11.5022C16.7585 11.461 17.4229 12.4568 17.4229 12.4568V12.8903C17.4229 12.8903 16.9885 12.4568 16.1202 12.4568C15.8776 12.4568 15.2917 12.6678 15.1836 13.2969C15.0663 13.9811 16.2478 14.1931 16.5537 14.1931C17.422 14.1931 18.3978 13.782 18.3978 13.782L17.7531 16.1C17.7531 16.1 16.9716 15.361 15.671 15.7945C14.751 16.1016 14.5863 17.3831 14.7726 17.7891C15.6696 19.7487 19.55 19.55 19.55 19.55C19.55 19.55 18.4179 20.7 16.1202 20.7C14.5907 20.7 12.65 19.8321 12.65 18.0968C12.65 16.3614 14.3862 15.4936 14.3862 15.4936C14.3862 15.4936 13.9379 14.8711 13.8539 14.6445C13.5124 13.728 13.9514 12.0211 15.2532 11.5876C15.4159 11.5334 15.5721 11.5081 15.7204 11.5022Z" fill="white"/>
</svg>
