<svg width="29" height="29" viewBox="0 0 29 29" fill="none" xmlns="http://www.w3.org/2000/svg">
<path d="M14.4804 1.81006C11.8411 1.81317 9.31084 2.863 7.44459 4.72925C5.57834 6.5955 4.52851 9.12578 4.5254 11.7651C4.52224 13.9219 5.22676 16.0202 6.53088 17.7381C6.53088 17.7381 6.80238 18.0955 6.84673 18.1471L14.4804 27.1501L22.1177 18.1426C22.1575 18.0946 22.4299 17.7381 22.4299 17.7381L22.4308 17.7353C23.7343 16.0182 24.4385 13.9209 24.4354 11.7651C24.4323 9.12578 23.3825 6.5955 21.5162 4.72925C19.65 2.863 17.1197 1.81317 14.4804 1.81006ZM14.4804 15.3851C13.7644 15.3851 13.0645 15.1727 12.4692 14.775C11.8739 14.3772 11.4099 13.8118 11.136 13.1504C10.862 12.4889 10.7903 11.761 10.93 11.0588C11.0696 10.3566 11.4144 9.7116 11.9207 9.20533C12.4269 8.69907 13.072 8.35429 13.7742 8.21462C14.4764 8.07494 15.2042 8.14663 15.8657 8.42061C16.5272 8.6946 17.0926 9.15859 17.4903 9.75389C17.8881 10.3492 18.1004 11.0491 18.1004 11.7651C18.0992 12.7248 17.7174 13.6448 17.0388 14.3235C16.3602 15.0021 15.4401 15.3839 14.4804 15.3851Z" fill="white"/>
</svg>
