<svg width="35" height="37" viewBox="0 0 35 37" fill="none" xmlns="http://www.w3.org/2000/svg">
<path d="M6.17647 26.7222H10.2941V32.8889H22.6471V4.11111H10.2941V22.6111H6.17647V4.11111C6.17647 2.98056 6.57966 2.01273 7.38603 1.20764C8.1924 0.402546 9.16177 0 10.2941 0H22.6471C23.7794 0 24.7488 0.402546 25.5551 1.20764C26.3615 2.01273 26.7647 2.98056 26.7647 4.11111V32.8889C26.7647 34.0194 26.3615 34.9873 25.5551 35.7924C24.7488 36.5975 23.7794 37 22.6471 37H10.2941C9.16177 37 8.1924 36.5975 7.38603 35.7924C6.57966 34.9873 6.17647 34.0194 6.17647 32.8889V26.7222ZM16.4706 14.3889C17.0539 14.3889 17.5429 14.1919 17.9375 13.7979C18.3321 13.4039 18.5294 12.9157 18.5294 12.3333C18.5294 11.7509 18.3321 11.2627 17.9375 10.8687C17.5429 10.4748 17.0539 10.2778 16.4706 10.2778C15.8873 10.2778 15.3983 10.4748 15.0037 10.8687C14.6091 11.2627 14.4118 11.7509 14.4118 12.3333C14.4118 12.9157 14.6091 13.4039 15.0037 13.7979C15.3983 14.1919 15.8873 14.3889 16.4706 14.3889ZM32.9412 12.3333C32.3578 12.3333 31.8689 12.1363 31.4743 11.7424C31.0797 11.3484 30.8824 10.8602 30.8824 10.2778V2.05556C30.8824 1.47315 31.0797 0.984954 31.4743 0.590972C31.8689 0.196991 32.3578 0 32.9412 0C33.5245 0 34.0135 0.196991 34.4081 0.590972C34.8027 0.984954 35 1.47315 35 2.05556V10.2778C35 10.8602 34.8027 11.3484 34.4081 11.7424C34.0135 12.1363 33.5245 12.3333 32.9412 12.3333ZM2.05882 26.7222C1.47549 26.7222 0.98652 26.5252 0.591912 26.1313C0.197304 25.7373 0 25.2491 0 24.6667C0 24.0843 0.197304 23.5961 0.591912 23.2021C0.98652 22.8081 1.47549 22.6111 2.05882 22.6111H16.4706C17.0539 22.6111 17.5429 22.8081 17.9375 23.2021C18.3321 23.5961 18.5294 24.0843 18.5294 24.6667C18.5294 25.2491 18.3321 25.7373 17.9375 26.1313C17.5429 26.5252 17.0539 26.7222 16.4706 26.7222H2.05882Z" fill="#216AEE"/>
</svg>
