<svg width="38" height="38" viewBox="0 0 38 38" fill="none" xmlns="http://www.w3.org/2000/svg">
<path d="M16.2866 12.2144H13.5723V27.1429H16.2866V12.2144Z" fill="white"/>
<path d="M24.4291 12.2144H21.7148V27.1429H24.4291V12.2144Z" fill="white"/>
<path d="M19 9.03243e-07C21.5318 -0.000782084 24.0379 0.5075 26.3693 1.49463C28.7008 2.48176 30.8099 3.92758 32.5714 5.74614V9.03243e-07H35.2857V10.8571H24.4286V8.14285H31.1084C28.5658 5.31925 25.1147 3.47518 21.3542 2.93081C17.5936 2.38644 13.7612 3.17613 10.5223 5.1628C7.28331 7.14946 4.84232 10.2076 3.62307 13.8064C2.40382 17.4052 2.48331 21.3173 3.84774 24.8636C5.21217 28.4099 7.77538 31.3664 11.0924 33.2198C14.4094 35.0733 18.2707 35.7066 22.006 35.0099C25.7413 34.3133 29.1146 32.3305 31.5405 29.406C33.9663 26.4814 35.2914 22.7997 35.2857 19H38C38 22.7578 36.8857 26.4313 34.7979 29.5558C32.7102 32.6804 29.7428 35.1156 26.271 36.5537C22.7992 37.9918 18.9789 38.368 15.2933 37.6349C11.6076 36.9018 8.22217 35.0922 5.56498 32.435C2.90778 29.7778 1.09821 26.3923 0.365088 22.7067C-0.368031 19.0211 0.00823238 15.2008 1.4463 11.729C2.88436 8.25722 5.31964 5.28982 8.44417 3.20208C11.5687 1.11433 15.2422 9.03243e-07 19 9.03243e-07Z" fill="white"/>
</svg>
