<svg width="38" height="38" viewBox="0 0 38 38" fill="none" xmlns="http://www.w3.org/2000/svg">
<path d="M33.8294 27.9255C32.6405 26.7357 31.2513 25.7645 29.7254 25.0566C31.8772 23.3134 33.2499 20.6535 33.2499 17.6706C33.2499 12.4078 28.8609 8.09013 23.598 8.17088C18.4158 8.25162 14.2405 12.4742 14.2405 17.6706C14.2405 20.6535 15.618 23.3134 17.765 25.0566C16.2389 25.764 14.8496 26.7352 13.661 27.9255C11.0675 30.5237 9.59506 33.9531 9.50006 37.6105C9.49879 37.6612 9.50768 37.7116 9.52621 37.7588C9.54474 37.806 9.57253 37.8491 9.60794 37.8854C9.64336 37.9217 9.68568 37.9505 9.73241 37.9702C9.77914 37.9899 9.82934 38 9.88006 38H12.54C12.7443 38 12.9153 37.8385 12.92 37.6343C13.0103 34.8793 14.1265 32.3002 16.0883 30.3432C17.0921 29.3341 18.2862 28.534 19.6013 27.9894C20.9164 27.4447 22.3265 27.1664 23.75 27.1703C26.6427 27.1703 29.3644 28.296 31.4117 30.3432C33.3687 32.3002 34.4849 34.8793 34.5799 37.6343C34.5847 37.8385 34.7556 38 34.9599 38H37.6199C37.6706 38 37.7208 37.9899 37.7675 37.9702C37.8143 37.9505 37.8566 37.9217 37.892 37.8854C37.9274 37.8491 37.9552 37.806 37.9737 37.7588C37.9923 37.7116 38.0011 37.6612 37.9999 37.6105C37.9049 33.9531 36.4324 30.5237 33.8294 27.9255ZM23.75 23.7504C22.1255 23.7504 20.596 23.1187 19.4512 21.9692C18.8768 21.3993 18.423 20.7194 18.1169 19.9703C17.8109 19.2211 17.6589 18.418 17.67 17.6089C17.6843 16.0509 18.3065 14.5452 19.3942 13.429C20.5342 12.2605 22.059 11.6098 23.6882 11.5908C25.2985 11.5765 26.8612 12.2035 28.0107 13.3292C29.1887 14.4834 29.8347 16.0271 29.8347 17.6706C29.8347 19.295 29.2029 20.8198 28.0534 21.9692C27.4895 22.5359 26.8188 22.985 26.0801 23.2908C25.3414 23.5965 24.5494 23.7527 23.75 23.7504ZM11.8513 18.9246C11.8085 18.5113 11.7848 18.0933 11.7848 17.6706C11.7848 16.9154 11.856 16.1791 11.989 15.4619C12.0223 15.2909 11.932 15.1152 11.7753 15.0439C11.1293 14.7542 10.5356 14.3552 10.0226 13.8517C9.41807 13.2656 8.9424 12.5599 8.6259 11.7797C8.30939 10.9995 8.159 10.1619 8.18432 9.32034C8.22707 7.79564 8.83981 6.34693 9.90856 5.25446C11.0818 4.05275 12.6588 3.39726 14.3355 3.41626C15.8508 3.43051 17.3138 4.01475 18.4205 5.05022C18.7957 5.40171 19.1187 5.79119 19.3895 6.20918C19.4845 6.35643 19.6697 6.41818 19.8312 6.36118C20.6672 6.07144 21.5507 5.86719 22.458 5.7722C22.724 5.7437 22.876 5.4587 22.7572 5.22121C21.2135 2.16705 18.0595 0.0581128 14.4115 0.0011145C9.14381 -0.0796331 4.75484 4.23799 4.75484 9.49609C4.75484 12.479 6.12758 15.1389 8.27932 16.8821C6.76883 17.5803 5.37709 18.5446 4.17059 19.751C1.56761 22.3492 0.0951182 25.7786 0.000118778 29.4408C-0.00114901 29.4914 0.00774306 29.5419 0.0262713 29.5891C0.0447995 29.6363 0.0725889 29.6793 0.108002 29.7156C0.143415 29.7519 0.185736 29.7807 0.232469 29.8004C0.279203 29.8201 0.329405 29.8303 0.380116 29.8302H3.04485C3.2491 29.8302 3.4201 29.6687 3.42485 29.4645C3.5151 26.7096 4.63134 24.1304 6.59308 22.1735C7.98957 20.777 9.69956 19.808 11.5663 19.3378C11.7515 19.2903 11.875 19.1146 11.8513 18.9246Z" fill="white"/>
</svg>
