<svg width="41" height="42" viewBox="0 0 41 42" fill="none" xmlns="http://www.w3.org/2000/svg">
<path d="M17.2152 36.3608L19.5797 33.9177L9.67926 24.336L23.8663 9.67695L33.7668 19.2586L36.1313 16.8155L22.9513 4.05985L9.53311 9.99985L4.03523 23.6052L17.2152 36.3608ZM17.3258 41.1994L1.79625e-05 24.4315L6.87237 7.42478L23.6451 -0.00022966L40.9709 16.7677L33.8774 24.0972L23.9769 14.5155L14.5189 24.2882L24.4193 33.8699L17.3258 41.1994ZM25.6016 32.6483L23.1265 30.2529L25.491 27.8097L27.9661 30.2052L25.6016 32.6483ZM24.2534 26.612L21.7783 24.2166L24.1428 21.7734L26.6179 24.1689L24.2534 26.612ZM30.3306 27.762L27.8555 25.3666L30.22 22.9234L32.6951 25.3188L30.3306 27.762Z" fill="#216AEE"/>
</svg>
